# File created by Blade
# Date/Time:  Fri Jan 16 17:52:57 2015
#---------------------------------------------------------
:version 1.10
:name HOM
:units
  mass 1.0
  length 1.000000
  angle deg
:documentation
     Acclaim Skeleton File
:root
   axis xyz
   order TX TY TZ RX RY RZ
   position 0.000000 0.000000 0.000000
   orientation 0 0 0
:bonedata
   begin
      id 1
      name Spine_dum
      direction 0.000000 1.000000 0.000000
      length 7.170412
      axis 0.0 0.0 0.0 xyz
   end
   begin
      id 2
      name LeftUpLeg_dum
      direction 1.000000 0.000000 0.000000
      length 4.318350
      axis 0.0 0.0 0.0 xyz
   end
   begin
      id 3
      name RightUpLeg_dum
      direction -1.000000 0.000000 0.000000
      length 4.318350
      axis 0.0 0.0 0.0 xyz
   end
   begin
      id 4
      name Spine
      direction 0.000000 1.000000 0.000000
      length 0.000000
      axis 0.0 0.0 0.0 xyz
      dof rx ry rz
   end
   begin
      id 5
      name Spine_dum1
      direction 0.000000 1.000000 0.000000
      length 14.276153
      axis 0.0 0.0 0.0 xyz
   end
   begin
      id 6
      name Spine_dum2
      direction 0.000000 1.000000 0.000000
      length 10.718243
      axis 0.0 0.0 0.0 xyz
   end
   begin
      id 7
      name Spine_dum3
      direction 0.000000 1.000000 0.000000
      length 10.718243
      axis 0.0 0.0 0.0 xyz
   end
   begin
      id 8
      name Head
      direction 0.000000 1.000000 0.000000
      length 4.527550
      axis 0.0 0.0 0.0 xyz
      dof rx ry rz
   end
   begin
      id 9
      name LeftShoulder
      direction 1.000000 0.000000 0.000000
      length 7.058872
      axis 0.0 0.0 -90.0 xyz
      dof rx ry rz
   end
   begin
      id 10
      name LeftArm
      direction 1.000000 0.000000 0.000000
      length 10.955525
      axis 0.0 0.0 -90.0 xyz
      dof rx ry rz
   end
   begin
      id 11
      name LeftForeArm
      direction 1.000000 0.000000 0.000000
      length 8.193716
      axis 0.0 0.0 -90.0 xyz
      dof ry rz rx
   end
   begin
      id 12
      name LeftHand
      direction 0.000000 0.000000 0.000000
      length 0.000000
      axis 0.0 0.0 -90.0 xyz
      dof rx ry rz
   end
   begin
      id 13
      name LeftHand_dum1
      direction 0.000000 0.000000 0.000000
      length 0.000000
      axis 0.0 0.0 -90.0 xyz
   end
   begin
      id 14
      name LeftHand_dum2
      direction 1.000000 0.000000 0.000000
      length 3.937000
      axis 0.0 0.0 -90.0 xyz
   end
   begin
      id 15
      name LeftHandThumb1
      direction 0.000000 0.000000 1.000000
      length 3.937000
      axis 0.0 0.0 -90.0 xyz
      dof rx rz ry
   end
   begin
      id 16
      name RightShoulder
      direction -1.000000 0.000000 0.000000
      length 7.058872
      axis 0.0 0.0 90.0 xyz
      dof rx ry rz
   end
   begin
      id 17
      name RightArm
      direction -1.000000 0.000000 0.000000
      length 10.955525
      axis 0.0 0.0 90.0 xyz
      dof rx ry rz
   end
   begin
      id 18
      name RightForeArm
      direction -1.000000 0.000000 0.000000
      length 8.193716
      axis 0.0 0.0 90.0 xyz
      dof ry rz rx
   end
   begin
      id 19
      name RightHand
      direction 0.000000 0.000000 0.000000
      length 0.000000
      axis 0.0 0.0 90.0 xyz
      dof rx ry rz
   end
   begin
      id 20
      name RightHand_dum1
      direction 0.000000 0.000000 0.000000
      length 0.000000
      axis 0.0 0.0 90.0 xyz
   end
   begin
      id 21
      name RightHand_dum2
      direction -1.000000 0.000000 0.000000
      length 3.937000
      axis 0.0 0.0 90.0 xyz
   end
   begin
      id 22
      name RightHandThumb1
      direction 0.000000 0.000000 1.000000
      length 3.937000
      axis 0.0 0.0 90.0 xyz
      dof rx rz ry
   end
   begin
      id 23
      name LeftUpLeg
      direction 0.000000 -1.000000 0.000000
      length 17.323638
      axis 0.0 0.0 0.0 xyz
      dof rx ry rz
   end
   begin
      id 24
      name LeftLeg
      direction 0.000000 -1.000000 0.000000
      length 16.270368
      axis 0.0 0.0 0.0 xyz
      dof rx ry rz
   end
   begin
      id 25
      name LeftFoot
      direction 0.000000 -0.258819 0.965926
      length 4.922846
      axis 15.0 0.0 0.0 xyz
      dof rx ry rz
   end
   begin
      id 26
      name LeftToeBase
      direction 0.000000 0.000000 1.000000
      length 2.952750
      axis 0.0 0.0 0.0 xyz
      dof rx ry rz
   end
   begin
      id 27
      name RightUpLeg
      direction 0.000000 -1.000000 0.000000
      length 17.323638
      axis 0.0 0.0 0.0 xyz
      dof rx ry rz
   end
   begin
      id 28
      name RightLeg
      direction 0.000000 -1.000000 0.000000
      length 16.270368
      axis 0.0 0.0 0.0 xyz
      dof rx ry rz
   end
   begin
      id 29
      name RightFoot
      direction 0.000000 -0.258819 0.965926
      length 4.922846
      axis 15.0 0.0 0.0 xyz
      dof rx ry rz
   end
   begin
      id 30
      name RightToeBase
      direction 0.000000 0.000000 1.000000
      length 2.952750
      axis 0.0 0.0 0.0 xyz
      dof rx ry rz
   end
:hierarchy
   begin
      root Spine_dum LeftUpLeg_dum RightUpLeg_dum
      Spine_dum Spine
      LeftUpLeg_dum LeftUpLeg
      RightUpLeg_dum RightUpLeg
      Spine Spine_dum1 Spine_dum2 Spine_dum3
      Spine_dum1 Head
      Spine_dum2 LeftShoulder
      Spine_dum3 RightShoulder
      LeftShoulder LeftArm
      LeftArm LeftForeArm
      LeftForeArm LeftHand
      LeftHand LeftHand_dum1 LeftHand_dum2
      LeftHand_dum1 LeftHandThumb1
      RightShoulder RightArm
      RightArm RightForeArm
      RightForeArm RightHand
      RightHand RightHand_dum1 RightHand_dum2
      RightHand_dum1 RightHandThumb1
      LeftUpLeg LeftLeg
      LeftLeg LeftFoot
      LeftFoot LeftToeBase
      RightUpLeg RightLeg
      RightLeg RightFoot
      RightFoot RightToeBase
   end

# File created by Blade
# Date/Time:  Fri Jan 16 17:53:05 2015
# Frame Rate: 120.000 fps
#------------------------------------------------------
:FULLY-SPECIFIED
:DEGREES
1159
root -3.638385 35.244394 -11.226059 -4.687441 3.980188 -7.473190
Spine 4.141204 -9.728183 7.914469
Head 2.899532 1.940522 -4.093018
LeftShoulder -23.575780 16.454077 -9.048441
LeftArm 24.478416 -25.455757 -69.406860
LeftForeArm 1.983209 0.000000 127.522719
LeftHand 2.155117 -0.000000 14.735091
LeftHandThumb1 -26.253704 0.000000 33.147579
RightShoulder -6.460163 -8.191266 0.063147
RightArm 1.221458 -22.132283 73.449330
RightForeArm -17.099624 -0.000000 21.560583
RightHand -0.445668 -0.000000 -2.374911
RightHandThumb1 -24.326973 -0.000000 -32.862282
LeftUpLeg 12.773130 -0.352775 -3.023055
LeftLeg -8.382374 -0.000000 0.000000
LeftFoot -14.723871 29.769119 -4.809255
LeftToeBase 19.188360 -0.000000 -0.000000
RightUpLeg -8.389479 28.426469 9.419988
RightLeg 82.293511 -0.000000 -0.000000
RightFoot 6.616860 -34.408179 -7.290236
RightToeBase -10.636813 -0.000000 0.000000
1160
root -3.630831 35.243860 -11.216940 -4.742486 4.043011 -7.485716
Spine 4.154912 -9.776841 7.934695
Head 2.927458 1.928156 -4.166799
LeftShoulder -23.571750 16.451296 -9.050328
LeftArm 24.457986 -25.372238 -69.300771
LeftForeArm 1.940492 0.000000 127.511201
LeftHand 2.074958 -0.000000 14.851850
LeftHandThumb1 -26.253704 0.000000 33.147579
RightShoulder -6.472141 -8.215642 0.012731
RightArm 1.204266 -22.241540 73.451799
RightForeArm -17.063432 0.000000 21.515354
RightHand -0.444690 -0.000000 -2.315983
RightHandThumb1 -24.326973 -0.000000 -32.862282
LeftUpLeg 12.810753 -0.279185 -3.010720
LeftLeg -8.335130 -0.000000 0.000000
LeftFoot -14.748236 29.652425 -4.774571
LeftToeBase 19.181481 -0.000000 -0.000000
RightUpLeg -8.491187 28.494245 9.379044
RightLeg 84.597659 -0.000000 -0.000000
RightFoot 6.448808 -34.619608 -7.072980
RightToeBase -10.022723 -0.000000 0.000000
1161
root -3.624053 35.243338 -11.206472 -4.788806 4.086246 -7.501767
Spine 4.144555 -9.802163 7.960547
Head 2.989200 1.929965 -4.230409
LeftShoulder -23.555074 16.471842 -9.050296
LeftArm 24.426690 -25.286720 -69.190688
LeftForeArm 1.913912 -0.000000 127.516941
LeftHand 2.077938 -0.000000 14.869914
LeftHandThumb1 -26.253704 0.000000 33.147579
RightShoulder -6.470256 -8.268155 -0.018076
RightArm 1.182076 -22.321558 73.430403
RightForeArm -17.060516 0.000000 21.493805
RightHand -0.362745 -0.000000 -2.169378
RightHandThumb1 -24.326973 -0.000000 -32.862282
LeftUpLeg 12.848201 -0.197623 -2.995146
LeftLeg -8.297339 -0.000000 0.000000
LeftFoot -14.754485 29.564975 -4.691107
LeftToeBase 19.202519 -0.000000 -0.000000
RightUpLeg -8.613434 28.491532 9.267297
RightLeg 86.865755 -0.000000 -0.000000
RightFoot 6.542558 -34.856460 -7.083384
RightToeBase -10.462820 -0.000000 0.000000
1162
root -3.615536 35.243289 -11.201413 -4.797708 4.136291 -7.523331
Spine 4.100215 -9.844394 8.010933
Head 3.036327 1.933203 -4.309456
LeftShoulder -23.571108 16.520603 -9.079734
LeftArm 24.440329 -25.209310 -69.123192
LeftForeArm 1.835024 -0.000000 127.500997
LeftHand 2.128309 -0.000000 14.836984
LeftHandThumb1 -26.253704 0.000000 33.147579
RightShoulder -6.464096 -8.294902 -0.055213
RightArm 1.164625 -22.398216 73.396464
RightForeArm -17.271370 -0.000000 21.458879
RightHand -0.306877 -0.000000 -2.420324
RightHandThumb1 -24.326973 -0.000000 -32.862282
LeftUpLeg 12.831625 -0.178734 -2.988627
LeftLeg -8.244147 -0.000000 0.000000
LeftFoot -14.769938 29.531915 -4.623024
LeftToeBase 19.223395 -0.000000 -0.000000
RightUpLeg -8.744489 28.556430 9.183495
RightLeg 89.137523 -0.000000 -0.000000
RightFoot 6.433052 -34.955904 -6.984742
RightToeBase -9.184800 -0.000000 0.000000
1163
root -3.604811 35.243226 -11.195965 -4.815638 4.190120 -7.541789
Spine 4.067141 -9.890306 8.036572
Head 3.088838 1.943430 -4.319985
LeftShoulder -23.634530 16.421231 -9.033564
LeftArm 24.365962 -24.992232 -69.021732
LeftForeArm 1.779353 -0.000000 127.456391
LeftHand 2.189391 -0.000000 14.775014
LeftHandThumb1 -26.253704 0.000000 33.147579
RightShoulder -6.458958 -8.318913 -0.064399
RightArm 1.152034 -22.531778 73.317609
RightForeArm -17.260775 -0.000000 21.447076
RightHand -0.343413 0.000000 -2.304540
RightHandThumb1 -24.326973 -0.000000 -32.862282
LeftUpLeg 12.823962 -0.186033 -2.993110
LeftLeg -8.188495 -0.000000 0.000000
LeftFoot -14.791106 29.525782 -4.585573
LeftToeBase 19.210641 -0.000000 -0.000000
RightUpLeg -8.875113 28.593732 9.036466
RightLeg 91.368489 -0.000000 -0.000000
RightFoot 6.392606 -35.058720 -6.845642
RightToeBase -9.201685 -0.000000 0.000000
